<?xml version="1.0" encoding="utf-8"?>
<!-- Generator: Adobe Illustrator 27.5.0, SVG Export Plug-In . SVG Version: 6.00 Build 0)  -->
<svg version="1.1" xmlns="http://www.w3.org/2000/svg" xmlns:xlink="http://www.w3.org/1999/xlink" x="0px" y="0px"
	 viewBox="0 0 500 500" style="enable-background:new 0 0 500 500;" xml:space="preserve">
<g id="BACKGROUND">
</g>
<g id="OBJECTS">
	<g>
		<path style="fill:#B35289;" d="M177.995,147.359l12.047,4.956c0,0,9.471,5.544,9.471,15.939c0,10.395,0,54.978,0,54.978
			s0.924,23.1-18.942,18.711c-19.866-4.389-93.554-50.358-93.554-50.358v-23.1l21.252,5.544V104.96c0,0,5.313,0.668,9.24,2.99
			c3.927,2.323,14.238,11.459,14.238,11.459l28.691,22.972L177.995,147.359z"/>
		<path style="fill:#FFBD8A;" d="M194.789,69.276c0,0,4.888,34.341-1.379,46.499c-6.267,12.157-21.181,7.52-23.187,7.395
			l-8.397,17.798l16.168,6.392c0,0-15.291,11.531-28.451,7.269c-13.16-4.261-21.307-13.787-17.797-35.219l8.397,3.76l13.411-22.56
			c0,0-5.139,2.256-7.771-6.392c-2.632-8.648,6.517-15.04,13.787-10.027l3.635-17.798L194.789,69.276z"/>
		<path style="fill:#A83C3C;" d="M154.91,82.501c2.504,0.908,4.104,3.436,5.256,5.838c0.184,0.383,0.73,0.028,0.941-0.002
			c0.845-0.121,0.483-4.146,0.483-4.146s2.959-1.772,4.469-4.973c1.51-3.201-0.966-10.266-0.966-10.266s14.855,4.891,23.612,3.201
			c8.756-1.691,11.111-5.616,11.051-7.911c-0.06-2.295-0.966-10.326-10.206-8.938c-9.239,1.389-25.423,9.602-28.865,9.722
			c-3.442,0.121-3.503,0.423-3.503,0.423l-2.413,17.001L154.91,82.501z"/>
		<path style="fill:#541E1E;" d="M176.164,85.747c0,0.939-0.761,1.701-1.701,1.701c-0.939,0-1.701-0.762-1.701-1.701
			s0.762-1.701,1.701-1.701C175.403,84.046,176.164,84.808,176.164,85.747z"/>
		<path style="fill:#541E1E;" d="M192.862,85.747c0,0.939-0.762,1.701-1.701,1.701c-0.939,0-1.701-0.762-1.701-1.701
			s0.762-1.701,1.701-1.701C192.101,84.046,192.862,84.808,192.862,85.747z"/>
		<path style="fill:#FF7E5E;" d="M185.224,82.579c0,0,2.996,20.203,2.647,20.203s-5.225-0.557-5.225-0.557
			S184.875,82.44,185.224,82.579z"/>
		<path style="fill:#FFFFFF;" d="M184.635,106.991l-13.633-3.212c0,0-1.666,6.421,3.998,7.996
			C181.657,113.627,184.569,107.45,184.635,106.991z"/>
		<path style="fill:#A83C3C;" d="M176.795,75.058c0,0-0.776-1.331-2.107-1.608c-1.331-0.277-4.215,1.497-3.882,1.996
			C171.139,75.945,176.795,75.058,176.795,75.058z"/>
		<path style="fill:#A83C3C;" d="M193.876,75.169c0,0-2.329-2.221-3.938-1.749c-1.608,0.473-1.331,1.831,0,2.178
			C191.27,75.945,193.932,75.89,193.876,75.169z"/>
		<path style="fill:#FF7E5E;" d="M154.769,82.45L154.769,82.45c0,0-9.779-1.227-9.987,8.136c-0.208,9.363,5.894,10.787,8.773,10.023
			c0,0,6.09-2.135,6.838-9.321C160.796,87.414,158.431,83.777,154.769,82.45z"/>
		<path style="fill:#FF7E5E;" d="M170.224,123.169c0,0-8.634-2.933-12.722-9.543c0,0-5.976,11.088,6.361,23.024L170.224,123.169z"/>
		<path style="fill:#FF7E5E;" d="M177.241,92.68c0,1.351-1.546,2.445-3.453,2.445c-1.907,0-3.453-1.095-3.453-2.445
			s1.546-2.445,3.453-2.445C175.695,90.235,177.241,91.33,177.241,92.68z"/>
		<ellipse style="fill:#FF7E5E;" cx="191.8" cy="92.68" rx="3.453" ry="2.445"/>
		<path style="fill:#3B1B2D;" d="M135.203,120.957l11.154,26.101l19.68-4.427l11.957,4.727c0,0-16.993,15.015-35.326,7.413
			c-18.333-7.602-13.73-37.807-13.73-37.807L135.203,120.957z"/>
		<polygon style="fill:#3B1B2D;" points="101.503,172.264 102.065,200.786 87.016,191.585 87.016,168.485 		"/>
		<polyline style="fill:none;stroke:#703356;stroke-miterlimit:10;" points="101.503,172.264 178.91,195.905 185.648,207.378 
			180.002,194.266 		"/>
		<path style="fill:none;stroke:#703356;stroke-miterlimit:10;" d="M128.939,116.965c0,0,6.414,27.265,6.933,27.265
			c0.52,0,10.084,1.89,10.084,1.89l4.815,7.292l20.002-8.1"/>
		<path style="fill:#FFBD8A;" d="M87.016,169c0,0-3.14-2.513-3.655-5.412c-0.515-2.899-2.126-14.109-6.894-14.303
			c-4.768-0.193-18.426,0.773-18.426,0.773s-0.837,2.19,2.126,3.028c2.964,0.838,8.633,0.322,9.406,1.933
			c0.773,1.611,2.19,6.958,2.19,6.958l-28.541-3.221c0,0,1.546,6.249,5.347,10.244c3.801,3.994,38.445,21.389,38.445,21.389V169z"/>
		<path style="fill:none;stroke:#FF7E5E;stroke-miterlimit:10;" d="M44.266,161.869c0,0,2.375,1.099,6.929,2.238
			c4.554,1.138,18.848,2.91,18.848,2.91"/>
		<line style="fill:none;stroke:#FF7E5E;stroke-miterlimit:10;" x1="46.97" y1="167.016" x2="69.078" y2="173.729"/>
	</g>
	<g>
		<path style="fill:#FFB75E;" d="M264.978,198.97c0,0,5.314-20.771,21.982-25.241s42.334-6.566,42.334-6.566l50.346,2.538
			l48.147,0.041c0,0,22.948,3.382,26.088,26.329L264.978,198.97z"/>
		<path style="fill:#FFBD8A;" d="M364.725,139.874l1.164,19.779c0,0,0.212,7.087,6.134,8.673c5.923,1.586,7.615,1.375,7.615,1.375
			s-7.64,14.49-25.82,12.375s-24.526-14.913-24.526-14.913l6.663-0.529c0,0,4.76-0.212,5.923-4.654
			c1.163-4.442,0.952-24.221,0.952-24.221L364.725,139.874z"/>
		<path style="fill:#FFBD8A;" d="M328.935,102.832c0,0-11.109,1.418-9.218,10.4s12.882,7.918,12.882,7.918l1.182,0.039l0.709,10.361
			c0,0,1.536,10.164,17.964,11.464c16.427,1.3,21.273-12.527,21.509-16.309c0.236-3.782,0-4.609,0-4.609s6.145,3.664,10.164-2.364
			c4.018-6.027,2.718-17.136-8.864-13.236l-0.356-28.026l-49.359,6.113l7.245,19.925L328.935,102.832z"/>
		<path style="fill:#541E1E;" d="M328.562,103.554c0,0,2.913,1.436,3.841,3.797c0.928,2.361,1.096,3.289,2.024,1.265
			c0.928-2.024-1.94-10.71,3.12-14.843c5.06-4.132,11.807-4.048,17.288-2.361c5.482,1.687,11.722,2.193,14.083-0.506
			c2.361-2.699-2.193-5.482-2.193-5.482s2.952,1.771,3.626,0.675c0.675-1.096-0.59-1.687-0.59-1.687s3.373,0.675,3.711,2.024
			c0.337,1.349-0.169,2.53,0.422,3.879c0.59,1.349,1.175,1.598,1.175,1.598s-2.862,16.818-1.175,17.814
			c1.687,0.996,2.718-3.494,6.335-3.357c3.617,0.137,4.905,2.872,4.905,2.872s0.567-3.241-1.372-4.759
			c-1.94-1.518-3.711-1.687-3.711-1.687s8.433-4.723,8.349-11.975c-0.084-7.253-0.084-17.626-8.771-20.071
			c-8.686-2.446-12.903,0.928-12.903,0.928s5.229-4.132,1.855-4.554c-3.373-0.422-9.783,7.253-16.951,6.915
			c-7.168-0.337-22.77-1.602-28.505,10.12C317.391,95.882,326.408,103.046,328.562,103.554z"/>
		<path style="fill:#541E1E;" d="M347.993,95.802c0,0-1.131-1.221-2.849-1.131c-1.718,0.09-4.025,2.442-4.025,2.442L347.993,95.802z
			"/>
		<path style="fill:#541E1E;" d="M367.077,97.837c0,0-2.442-3.582-4.884-3.17c-2.442,0.412-1.492,2.266-1.492,2.266L367.077,97.837z
			"/>
		<path style="fill:#541E1E;" d="M346.184,107.605c0,0.899-0.729,1.628-1.628,1.628c-0.899,0-1.628-0.729-1.628-1.628
			c0-0.899,0.729-1.628,1.628-1.628C345.455,105.977,346.184,106.706,346.184,107.605z"/>
		<circle style="fill:#541E1E;" cx="363.097" cy="107.605" r="1.628"/>
		<path style="fill:#FF7E5E;" d="M354.395,101.832c0,0,3.909,22.049,3.608,22.049c-0.301,0-4.61-1.002-4.61-1.002L354.395,101.832z"
			/>
		<path style="fill:#FF7E5E;" d="M347.279,113.705c0,1.248-1.638,2.259-3.658,2.259c-2.02,0-3.658-1.011-3.658-2.259
			c0-1.248,1.638-2.259,3.658-2.259C345.642,111.446,347.279,112.457,347.279,113.705z"/>
		<ellipse style="fill:#FF7E5E;" cx="364.725" cy="113.705" rx="3.658" ry="2.259"/>
		<path style="fill:#FF7E5E;" d="M333.684,109.872c0,0-0.661-8.229-8.371-7.054c-7.71,1.175-8.224,13.29-3.084,16.888
			s11.969,1.689,11.969,1.689L333.684,109.872z"/>
		<path style="fill:#FF7E5E;" d="M373.963,122.096"/>
		<path style="fill:#FF7E5E;" d="M373.963,122.096v-12.863c0,0,3.268-4.44,7.521-3.678c4.253,0.762,7.618,6.411,5.205,12.505
			C384.277,124.154,375.455,125.053,373.963,122.096z"/>
		<path style="fill:#541E1E;" d="M345.84,124.864c0,0,1.473,3.992,7.005,5.116c5.532,1.124,8.962-3.486,8.962-3.486
			s-0.374,5.281-8.414,5.394C353.393,131.888,345.559,131.386,345.84,124.864z"/>
		<path style="fill:#FF7E5E;" d="M342.846,140.732c0,0,5.399,2.611,12.148,2.368c6.749-0.244,9.782-2.368,9.782-2.368l0.473,8.035
			c0,0-3.296,2.597-10.783,2.597c-7.487,0-11.62-3.656-11.62-3.656V140.732z"/>
		<path style="fill:#FF7745;" d="M329.293,167.162c0,0,10.999,14.34,26.647,15.084c15.648,0.744,23.699-12.546,23.699-12.546
			l4.304,0.004c0,0-5.7,14.225-27.325,15.945s-31.141-18.135-31.141-18.135L329.293,167.162z"/>
		<g>
			<path style="fill:#FFBD8A;" d="M289.09,198.6c0,0,10.643-8.236,17.985-8.071c7.342,0.165,18.81,9.322,19.14,9.57
				c0.33,0.247-1.32,1.403-4.538,0.413s-8.58-2.723-8.58-2.723s5.115,24.585,4.702,24.915c-0.412,0.33-3.382-1.732-3.382-1.732
				s-5.527-0.082-10.147-3.382C299.65,214.288,289.255,201.639,289.09,198.6z"/>
			<line style="fill:none;stroke:#FF7E5E;stroke-miterlimit:10;" x1="314.418" y1="220.971" x2="307.167" y2="206.217"/>
			<path style="fill:none;stroke:#FF7E5E;stroke-miterlimit:10;" d="M310.792,220.451c0,0-8.71-11.644-8.902-11.931"/>
		</g>
		<g>
			<path style="fill:#FFBD8A;" d="M442.504,196.312c0,0-10.643-8.236-17.985-8.071c-7.342,0.165-18.81,9.323-19.14,9.57
				c-0.33,0.247,1.32,1.402,4.537,0.412c3.218-0.99,8.58-2.722,8.58-2.722s-5.115,24.585-4.702,24.915
				c0.412,0.33,3.382-1.732,3.382-1.732s5.528-0.083,10.147-3.383C431.944,212,442.339,199.35,442.504,196.312z"/>
			<line style="fill:none;stroke:#FF7E5E;stroke-miterlimit:10;" x1="417.176" y1="218.683" x2="424.427" y2="203.929"/>
			<path style="fill:none;stroke:#FF7E5E;stroke-miterlimit:10;" d="M420.802,218.163c0,0,8.71-11.643,8.902-11.931"/>
		</g>
	</g>
	<g>
		<path style="fill:#FFBD8A;" d="M165.639,352.202c0,0-16.843,29.674-15.945,33.627s7.955,8.444,7.955,8.444
			s-18.735,9.343-30.233-3.773s-10.061-33.104-10.061-33.104s6.468,7.771,10.96,6.334c4.492-1.437,20.482-18.146,20.482-18.146
			L165.639,352.202z"/>
		<path style="fill:#FF7E5E;" d="M165.639,352.202l-16.843-6.618c0,0-6.927,7.238-12.944,12.597l27.13-1.208
			C164.567,354.089,165.639,352.202,165.639,352.202z"/>
		<path style="fill:#541E1E;" d="M172.612,304.887c0,0,10.346,3.756,13.182,19.464c2.836,15.708,8.836,21.707,8.836,21.707
			l-5.999,2.509c0,0-3.054-8.181-2.836-7.854c0.218,0.327,0.982,8.29,0.982,8.29s-3.372,0.957-6.976-0.613
			c-3.605-1.569,0.868-8.659,0.868-8.659L172.612,304.887z"/>
		<path style="fill:#FFBD8A;" d="M168.329,303.215c0,0,8.183,0.336,12.779,14.461c4.596,14.124,8.632,35.311-15.469,34.526
			c0,0-11.77-1.682-18.16-6.165l-4.035-9.753c0,0-3.475,2.018-7.511-3.811c-4.035-5.829,3.027-13.564,9.977-10.201L168.329,303.215z
			"/>
		<polygon style="fill:#FF7E5E;" points="172.645,323.879 175.358,332.968 170.814,332.629 		"/>
		<path style="fill:#FF7E5E;" d="M147.388,323.008c0,0-0.594-4.415-7.217-2.887c-6.623,1.528-8.83,12.651-1.528,16.132
			C145.945,339.734,149.086,328.697,147.388,323.008z"/>
		<path style="fill:#FFB75E;" d="M143.259,333.577c0,0-0.657-1.724-2.052-1.437c-1.396,0.287-1.919,2.381-0.241,2.832
			C142.644,335.424,143.534,334.096,143.259,333.577z"/>
		<circle style="fill:#541E1E;" cx="163.397" cy="323.525" r="1.496"/>
		<circle style="fill:#541E1E;" cx="176.071" cy="322.029" r="1.496"/>
		<path style="fill:#541E1E;" d="M156.706,332.108c0,0,0.866,5.271,4.251,7.003c3.385,1.732,8.974-2.193,8.974-2.193
			s-2.519,5.893-9.21,4.082C160.721,341,154.659,339.668,156.706,332.108z"/>
		<path style="fill:#541E1E;" d="M147.052,323.013c0,0,2.824-4.53,10.649-4.06c7.825,0.471,14.82-8.716,14.911-14.066
			c0,0-4.145-5.114-18.088-3.172c-13.944,1.941-25.843,16.652-24.032,35.203s2.83,20.476,2.83,20.476s12.729,0.113,18.138-2.264
			c5.409-2.377,5.409-2.377,5.409-2.377l-9.222-19.167c0,0-6.776,4.803-10.076,0.799
			C134.272,330.382,136.16,319.912,147.052,323.013z"/>
		<path style="fill:#541E1E;" d="M176.481,313.86c0,0-0.753-2.87-3.012-3.012c-2.259-0.141-1.788,2.541-1.788,2.541
			S173.14,310.425,176.481,313.86z"/>
		<path style="fill:#541E1E;" d="M172.191,304.474c0,0-2.13,13.918-10.289,14.867c-8.159,0.949-12.04,0.723-15.239,2.747l0.66,1.581
			c0,0,8.346-3.419,16-3.303C170.975,320.483,172.991,307.055,172.191,304.474z"/>
		<path style="fill:#FF4545;" d="M157.649,394.273c0,0,10.621,2.207,15.992,9.137c5.371,6.93,14.726,22.176,14.726,22.176
			l-18.711,24.601l-8.836-9.702l0,0c-45.073,0-81.611-36.538-81.611-81.611v-17.528c0,0,12.02-6.597,20.804-0.662
			c8.784,5.935,17.341,16.711,17.341,16.711s-1.867,20.758,12.955,33.282C130.309,390.678,140.824,398.717,157.649,394.273z"/>
		<path style="fill:none;stroke:#A82E2E;stroke-miterlimit:10;" d="M160.82,440.485l-12.981-26.371c0,0-1.073,2.703,0,4.99
			c1.074,2.287,8.445,17.257,8.445,17.257l-12.975-9.98"/>
		<path style="fill:#FFBD8A;" d="M188.367,425.586l3.475,4.587l19.807-46.533c0,0-1.945-5.018-5.047-6.2
			c-3.103-1.182-5.417-2.364-6.008-5.861s0.345-14.676,0.345-14.676s0.985,0.148,1.477,3.152c0.493,3.004,1.478,7.141,1.478,7.141
			s2.462,0.049,3.103-0.542c0.64-0.591,3.397-17.582,4.653-18.321c1.257-0.739,1.257-0.542,1.257-0.542v17.878
			c0,0,3.398-14.923,4.432-15.809c1.034-0.887,1.477-0.492,1.477,1.33s-0.64,15.07-0.64,15.07s4.433-14.282,5.565-14.775
			c1.133-0.492,1.33-0.049,1.33-0.049l-10.578,99.695c0,0-5.547,17.208-17.434,16.415c-11.887-0.792-26.79-18.164-26.79-18.164
			L188.367,425.586z"/>
		<path style="fill:none;stroke:#FF7E5E;stroke-miterlimit:10;" d="M208.29,367.523c0,0,8.591-0.847,12.281,0.302"/>
		<path style="fill:#FFA83D;" d="M131.946,361.463c0,0,0.525,15.048,20.756,15.446l-1.957,4.116c0,0-8.889,3.051-15.992-4.385
			c-7.103-7.436-6.133-13.011-5.902-13.13C129.083,363.391,131.946,361.463,131.946,361.463z"/>
		<path style="fill:#FF7E5E;" d="M165.639,328.767c0,1.064-1.335,1.927-2.982,1.927c-1.647,0-2.983-0.863-2.983-1.927
			c0-1.064,1.335-1.927,2.983-1.927C164.303,326.84,165.639,327.703,165.639,328.767z"/>
		<path style="fill:#FF7E5E;" d="M182.036,328.767c0,1.064-1.335,1.927-2.983,1.927s-2.982-0.863-2.982-1.927
			c0-1.064,1.335-1.927,2.982-1.927S182.036,327.703,182.036,328.767z"/>
	</g>
	<g>
		<path style="fill:#3B1B2D;" d="M414.391,332.101c0,0,24.979-0.008,30.324,12.194c5.345,12.202,12.739,51.241,12.739,51.241
			l-35.975-9.445l-56.136,18.491l-33.349,1.155l-5.531-12.534l3.694-28.145c0,0,2.444-5.711,7.253-9.341
			c4.809-3.63,14.718-9.434,14.718-9.434L414.391,332.101z"/>
		<path style="fill:#FF7E5E;" d="M387.077,321.983c-5.331-7.911-7.126-17.589-7.126-17.589l-14.749,13.67
			c0,0,2.241,5.646,2.348,11.041c7.103-0.358,14.453-2.442,19.808-6.748C387.264,322.232,387.163,322.11,387.077,321.983z"/>
		<path style="fill:#FFBD8A;" d="M387.358,322.356c-5.355,4.307-12.705,6.39-19.808,6.748c0.062,3.12-0.588,6.157-2.804,7.969
			c-6.047,4.944-13.693,9.922-13.693,9.922s15.505,17.074,38.434,11.105c22.929-5.969,24.904-25.999,24.904-25.999
			S393.12,329.96,387.358,322.356z"/>
		<path style="fill:#A83C3C;" d="M395.77,288.94c0,0,3.515,7.742,10.626,17.823c7.111,10.081,9.206,22.146,0.832,27.969
			c-8.374,5.823-26.055,11.63-29.957,22.984c-3.902,11.354-1.842,19.519-5.777,15.652c-3.935-3.867-2.263-9.056-2.659-15.493
			s-7.69-20.049-4.233-29.039c3.458-8.989,16.22-14.567,17.029-22.32c0.809-7.753-2.555-12.846-0.819-21.428
			C382.548,276.507,394.672,282.967,395.77,288.94z"/>
		<path style="fill:#FFBD8A;" d="M378.133,276.682c0,0-10.093-8.082-25.979-4.005c-15.886,4.077-16.039,23.526-10.614,34.681
			c5.425,11.155,16.524,12.316,25.025,11.394c8.501-0.922,12.779-8.126,13.857-12.174c1.078-4.049,2.788-9.69,2.788-9.69
			s3.064,3.45,8.292,0.047c5.228-3.403,5.285-12.78-3.855-12.901c0,0-5.68,0.381-6.398,4.915L378.133,276.682z"/>
		<path style="fill:#A83C3C;" d="M347.708,274.421c0,0,9.146,5.33,18.801,7.84c9.655,2.51,12.42,1.712,12.42,1.712
			s-1.782,2.69-1.406,5.703c0.376,3.014,3.213,7.049,3.14,13.235c-0.072,6.186-1.346,8.292-1.346,8.292s4.005-4.742,4.654-7.835
			c0.648-3.093-1.563-6.132-2.19-9.538c-0.627-3.406-0.433-5.365-0.433-5.365s6.943-7.896,13.267-0.445l0.416,1.795
			c0,0,1.184,0.087,0.582-2.532c-0.602-2.618-7.767-4.65-9.654-8.632c-1.887-3.982-3.168-6.637-9.445-9.946
			c-6.278-3.309-24.203-0.226-29.086,5.624L347.708,274.421z"/>
		<path style="fill:#A83C3C;" d="M347.708,274.421c0,0,4.225,7.816,16.629,9.81c12.404,1.994,16.544-0.556,16.544-0.556
			s-7.163,3.773-6.134,11.826c1.029,8.053,7.733,14.076,4.407,19.192c-3.327,5.116-4.477,5.487-4.477,5.487
			s6.133-7.133,2.654-11.759c-3.48-4.626-6.271-12.256-4.807-16.694c1.464-4.438,4.242-5.935,4.242-5.935
			s-12.588,2.862-19.591-0.917C350.171,281.095,347.94,275.544,347.708,274.421z"/>
		<path style="fill:#A83C3C;" d="M351.663,273.652c0,0,0.502,3.104-3.471,5.201c-3.973,2.097-6.659,8.791-8.56,11.77
			c-1.901,2.979-1.276,3.881-1.901,2.979c-0.625-0.902-1.491-4.392-0.395-10.226C338.432,277.542,345.662,270.618,351.663,273.652z"
			/>
		<polygon style="fill:#FF7E5E;" points="356.343,287.719 355.135,300.036 359.944,300.304 		"/>
		<path style="fill:#FF7E5E;" d="M352.908,295.328c0.194,0.976-1.019,2.039-2.709,2.375c-1.69,0.336-3.218-0.183-3.412-1.159
			c-0.194-0.976,1.019-2.039,2.709-2.375C351.187,293.833,352.714,294.352,352.908,295.328z"/>
		<path style="fill:#FF7E5E;" d="M369.7,291.645c0.194,0.976-1.019,2.039-2.709,2.375c-1.69,0.336-3.218-0.183-3.412-1.159
			c-0.194-0.976,1.019-2.039,2.709-2.375C367.979,290.151,369.507,290.669,369.7,291.645z"/>
		<path style="fill:#4A1A1A;" d="M351.704,290.592c-0.036,0.651-0.594,1.15-1.245,1.113c-0.651-0.036-1.15-0.593-1.113-1.244
			c0.036-0.651,0.593-1.149,1.244-1.113C351.242,289.384,351.74,289.941,351.704,290.592z"/>
		<path style="fill:#4A1A1A;" d="M366.232,287.91c-0.036,0.651-0.593,1.149-1.244,1.113c-0.651-0.036-1.149-0.593-1.113-1.244
			c0.036-0.651,0.593-1.15,1.245-1.113C365.77,286.702,366.268,287.259,366.232,287.91z"/>
		<path style="fill:#4A1A1A;" d="M352.145,282.674c0,0-0.261-1.265-2.112-0.368c-1.851,0.898-2.558,2.81-2.558,2.81L352.145,282.674
			z"/>
		<path style="fill:#4A1A1A;" d="M366.366,281.015c0,0-2.883-2.257-5.248-1.793c-2.365,0.464-1.375,2.125-1.375,2.125
			L366.366,281.015z"/>
		<path style="fill:#FFFFFF;" d="M367.109,300.703l-10.147,5.283c0,0,1.304,4.41,6.473,3.955
			C368.603,309.484,369.512,303.169,367.109,300.703z"/>
		<path style="fill:none;stroke:#703356;stroke-miterlimit:10;" d="M429.951,340.022c0,0-8.318,2.556-9.76,8.135
			c-1.443,5.58,0.817,37.276,0.817,37.276l-3.674-33.41"/>
		<path style="fill:#FFBD8A;" d="M456.776,395.357c0,0-3.851,12.154-19.644,14.928c-15.793,2.774-53.49,0.091-53.49,0.091
			s-6.64,21.992-9.157,22.582c-2.517,0.591-1.603-0.089-1.603-0.089l-4.214-26.688c0,0-8.706,8.138-9.473,8.095
			c-0.767-0.043,7.839-12.863,9.822-14.361c1.983-1.497,52.461-13.825,52.461-13.825L456.776,395.357z"/>
		<line style="fill:none;stroke:#FF7E5E;stroke-miterlimit:10;" x1="374.485" y1="432.958" x2="378.143" y2="409.257"/>
		<path style="fill:#FFBD8A;" d="M338.574,405.508l-27.591-55.707c0,0,5.914-4.641,4.614-8.997c-1.3-4.357-7.219-18.81-8.776-19.669
			c-1.557-0.859-1.557-0.859-1.557-0.859l0.755,14.188c0,0-13.017-17.07-15.009-17.597c-1.992-0.527-3.207,1.01-3.207,1.01
			s-1.982-1.775-3.16-1.959c-1.178-0.185-1.867,0.431-1.867,0.431l19.979,89.824L338.574,405.508z"/>
		<path style="fill:none;stroke:#FF7E5E;stroke-miterlimit:10;" d="M306.34,334.852c0,0-9.936-3.501-13.23,4.818"/>
		<line style="fill:none;stroke:#FF7E5E;stroke-miterlimit:10;" x1="295.193" y1="336.47" x2="283.137" y2="316.126"/>
		<line style="fill:none;stroke:#FF7E5E;stroke-miterlimit:10;" x1="298.626" y1="334.524" x2="287.805" y2="317.877"/>
	</g>
</g>
</svg>
